<?xml version="1.0" encoding="UTF-8"?>
<svg xmlns="http://www.w3.org/2000/svg" xmlns:xlink="http://www.w3.org/1999/xlink" width="125px" height="66px" viewBox="0 0 125 66" version="1.1">
<defs>
<linearGradient id="linear0" gradientUnits="userSpaceOnUse" x1="130" y1="275" x2="375" y2="95" gradientTransform="matrix(0.192901,0,0,0.194118,0,0)">
<stop offset="0" style="stop-color:rgb(92.941176%,93.72549%,95.294118%);stop-opacity:1;"/>
<stop offset="0.1147" style="stop-color:rgb(76.470588%,78.431373%,85.098039%);stop-opacity:1;"/>
<stop offset="0.2702" style="stop-color:rgb(50.196078%,61.176471%,78.039216%);stop-opacity:1;"/>
<stop offset="0.6008" style="stop-color:rgb(29.019608%,48.627451%,45.882353%);stop-opacity:1;"/>
<stop offset="0.8886" style="stop-color:rgb(15.686275%,29.411765%,22.352941%);stop-opacity:1;"/>
<stop offset="1" style="stop-color:rgb(9.019608%,7.058824%,7.058824%);stop-opacity:1;"/>
</linearGradient>
</defs>
<g id="surface1">
<path style=" stroke:none;fill-rule:nonzero;fill:rgb(0%,0%,0%);fill-opacity:1;" d="M 5.570312 25.625 C 5.570312 25.105469 5.320312 24.847656 4.824219 24.847656 L 4.824219 24.214844 L 11.191406 24.214844 L 11.191406 32.175781 L 10.609375 32.175781 C 10.414062 29.652344 10.109375 27.929688 9.691406 27.007812 C 9.277344 26.085938 8.652344 25.605469 7.820312 25.574219 L 7.820312 33.824219 C 8.570312 34.117188 8.957031 32.902344 8.984375 30.183594 L 9.566406 30.234375 L 9.566406 40.183594 L 8.984375 40.183594 C 8.984375 37.5625 8.597656 36.15625 7.820312 35.960938 L 7.820312 46.296875 C 7.820312 47.234375 8.015625 47.589844 8.402344 47.363281 L 8.445312 48.09375 L 4.949219 48.09375 L 4.90625 47.363281 C 5.378906 47.558594 5.597656 47.21875 5.570312 46.34375 L 5.570312 25.625 "/>
<path style=" stroke:none;fill-rule:nonzero;fill:rgb(0%,0%,0%);fill-opacity:1;" d="M 13.503906 24.847656 L 13.503906 24.167969 L 16.851562 24.167969 L 16.808594 24.847656 C 16.402344 24.910156 16.199219 25.234375 16.199219 25.816406 L 16.199219 46.101562 C 16.214844 47.058594 16.445312 47.511719 16.894531 47.460938 L 16.894531 48.140625 L 13.503906 48.140625 L 13.503906 47.460938 C 13.910156 47.527344 14.113281 47.074219 14.113281 46.101562 L 14.113281 25.816406 C 14.113281 25.234375 13.910156 24.910156 13.503906 24.847656 "/>
<path style=" stroke:none;fill-rule:nonzero;fill:rgb(0%,0%,0%);fill-opacity:1;" d="M 20.519531 25.867188 C 20.605469 25.285156 20.382812 24.929688 19.863281 24.796875 L 19.863281 24.167969 L 22.789062 24.167969 L 24.394531 37.707031 C 24.394531 37.707031 24.394531 29.683594 24.394531 25.671875 C 24.394531 25.1875 24.230469 24.910156 23.902344 24.847656 L 23.902344 24.167969 L 26.414062 24.167969 L 26.414062 24.796875 C 26.058594 24.894531 25.921875 25.574219 25.921875 26.835938 L 25.921875 48.09375 L 23.984375 48.09375 L 22.003906 32.855469 L 22.003906 46.492188 C 21.921875 47.203125 22.128906 47.542969 22.625 47.511719 L 22.625 48.09375 L 19.820312 48.09375 L 19.863281 47.558594 C 20.328125 47.492188 20.546875 47.121094 20.519531 46.441406 L 20.519531 25.867188 "/>
<path style=" stroke:none;fill-rule:nonzero;fill:rgb(0%,0%,0%);fill-opacity:1;" d="M 32.648438 43.871094 L 32.648438 43.871094 M 30.835938 41.542969 L 31.648438 41.542969 L 31.230469 33.679688 L 30.835938 41.542969 M 31.480469 48.140625 L 31.480469 47.800781 C 31.8125 47.414062 31.925781 46.023438 31.8125 43.628906 L 30.773438 43.628906 C 30.605469 46.023438 30.703125 47.414062 31.0625 47.800781 L 31.0625 48.140625 L 28.355469 48.140625 L 28.355469 47.800781 C 28.578125 47.769531 28.765625 47.664062 28.917969 47.484375 C 29.070312 47.308594 29.535156 39.550781 30.3125 24.214844 L 32.480469 24.214844 C 33.507812 39.550781 34.078125 47.308594 34.1875 47.484375 C 34.300781 47.664062 34.464844 47.769531 34.6875 47.800781 L 34.6875 48.140625 L 31.480469 48.140625 "/>
<path style=" stroke:none;fill-rule:nonzero;fill:rgb(0%,0%,0%);fill-opacity:1;" d="M 37.5 26.207031 C 37.472656 25.363281 37.203125 24.929688 36.691406 24.894531 L 36.691406 24.167969 L 40.363281 24.167969 L 40.363281 24.847656 C 39.824219 24.910156 39.554688 25.363281 39.554688 26.207031 L 39.566406 46.613281 C 40.582031 46.53125 41.371094 43.773438 41.933594 38.339844 L 42.460938 38.339844 L 42.460938 48.140625 L 36.652344 48.140625 L 36.652344 47.460938 C 37.1875 47.398438 37.472656 47.007812 37.5 46.296875 L 37.5 26.207031 "/>
<path style=" stroke:none;fill-rule:nonzero;fill:rgb(0%,0%,0%);fill-opacity:1;" d="M 48.78125 25.625 C 48.78125 25.105469 48.53125 24.847656 48.03125 24.847656 L 48.03125 24.214844 L 54.382812 24.214844 L 54.382812 32.175781 L 53.800781 32.175781 C 53.605469 29.652344 53.300781 27.929688 52.886719 27.007812 C 52.472656 26.085938 51.851562 25.605469 51.019531 25.574219 L 51.019531 33.824219 C 51.765625 34.117188 52.152344 32.902344 52.183594 30.183594 L 52.761719 30.234375 L 52.761719 40.183594 L 52.183594 40.183594 C 52.183594 37.5625 51.792969 36.15625 51.019531 35.960938 L 51.019531 46.296875 C 51.019531 47.234375 51.214844 47.589844 51.601562 47.363281 L 51.640625 48.09375 L 48.15625 48.09375 L 48.117188 47.363281 C 48.585938 47.558594 48.808594 47.21875 48.78125 46.34375 L 48.78125 25.625 "/>
<path style=" stroke:none;fill-rule:nonzero;fill:rgb(0%,0%,0%);fill-opacity:1;" d="M 59.875 43.871094 L 59.875 43.871094 M 58.050781 41.542969 L 58.867188 41.542969 L 58.449219 33.679688 L 58.050781 41.542969 M 58.699219 48.140625 L 58.699219 47.800781 C 59.035156 47.414062 59.148438 46.023438 59.035156 43.628906 L 57.988281 43.628906 C 57.820312 46.023438 57.917969 47.414062 58.28125 47.800781 L 58.28125 48.140625 L 55.554688 48.140625 L 55.554688 47.800781 C 55.777344 47.769531 55.96875 47.664062 56.121094 47.484375 C 56.273438 47.308594 56.742188 39.550781 57.527344 24.214844 L 59.707031 24.214844 C 60.742188 39.550781 61.3125 47.308594 61.425781 47.484375 C 61.535156 47.664062 61.703125 47.769531 61.929688 47.800781 L 61.929688 48.140625 L 58.699219 48.140625 "/>
<path style=" stroke:none;fill-rule:nonzero;fill:rgb(0%,0%,0%);fill-opacity:1;" d="M 64.523438 25.867188 C 64.523438 25.285156 64.382812 24.929688 63.84375 24.796875 L 63.84375 24.167969 L 66.851562 24.167969 L 68.503906 37.707031 L 68.503906 25.671875 C 68.503906 25.1875 68.335938 24.910156 67.996094 24.847656 L 67.996094 24.167969 L 70.582031 24.167969 L 70.582031 24.796875 C 70.214844 24.894531 70.042969 25.574219 70.070312 26.835938 L 70.070312 48.09375 L 68.082031 48.09375 L 66.046875 32.855469 C 66.046875 32.855469 66.046875 41.945312 66.046875 46.492188 C 66.046875 47.207031 66.175781 47.542969 66.683594 47.511719 L 66.683594 48.09375 L 63.800781 48.09375 L 63.84375 47.558594 C 64.324219 47.492188 64.523438 47.121094 64.523438 46.441406 "/>
<path style=" stroke:none;fill-rule:nonzero;fill:rgb(0%,0%,0%);fill-opacity:1;" d="M 79.28125 24.210938 L 79.273438 32.660156 L 78.578125 32.660156 C 78.441406 29.199219 78.058594 27.144531 77.433594 26.496094 L 77.433594 46.394531 C 77.433594 47.171875 77.730469 47.65625 78.332031 47.851562 L 78.332031 48.191406 L 74.527344 48.191406 L 74.527344 47.851562 C 75.179688 47.65625 75.480469 47.15625 75.425781 46.34375 L 75.425781 26.496094 C 74.746094 27.113281 74.308594 29.167969 74.117188 32.660156 L 73.542969 32.660156 L 73.546875 24.210938 "/>
<path style=" stroke:none;fill-rule:nonzero;fill:rgb(0%,0%,0%);fill-opacity:1;" d="M 85.382812 43.871094 L 85.382812 43.871094 M 83.621094 41.542969 L 84.414062 41.542969 L 84.007812 33.679688 L 83.621094 41.542969 M 84.25 48.140625 L 84.25 47.800781 C 84.574219 47.414062 84.683594 46.023438 84.574219 43.628906 L 83.5625 43.628906 C 83.398438 46.023438 83.492188 47.414062 83.84375 47.800781 L 83.84375 48.140625 L 81.210938 48.140625 L 81.210938 47.800781 C 81.425781 47.769531 81.609375 47.664062 81.757812 47.484375 C 81.90625 47.308594 82.359375 39.550781 83.117188 24.214844 L 85.222656 24.214844 C 86.222656 39.550781 86.777344 47.308594 86.882812 47.484375 C 86.992188 47.664062 87.152344 47.769531 87.371094 47.800781 L 87.371094 48.140625 L 84.25 48.140625 "/>
<path style=" stroke:none;fill-rule:nonzero;fill:rgb(0%,0%,0%);fill-opacity:1;" d="M 90.085938 39.695312 L 92.304688 38.339844 C 92.03125 43.386719 92.105469 46.039062 92.53125 46.296875 C 92.953125 46.554688 93.195312 46.425781 93.25 45.910156 C 93.496094 43.96875 93.496094 42.011719 93.25 40.035156 C 93.167969 39.035156 93.003906 38.320312 92.753906 37.902344 C 91.222656 35.085938 90.34375 32.984375 90.125 31.59375 L 90.085938 26.789062 C 90.386719 25.105469 91.207031 24.265625 92.550781 24.265625 C 94.054688 24.296875 94.851562 25.429688 94.933594 27.660156 L 95.054688 30.769531 L 93.003906 32.320312 C 93.03125 30.378906 93.03125 28.566406 93.003906 26.886719 C 93.003906 26.078125 92.84375 25.664062 92.53125 25.648438 C 92.214844 25.632812 92.058594 26.011719 92.058594 26.789062 L 92.097656 31.640625 C 93.496094 34.292969 94.441406 36.332031 94.933594 37.757812 C 95.425781 39.179688 95.605469 41.21875 95.46875 43.871094 C 95.332031 46.816406 94.441406 48.269531 92.796875 48.238281 C 91.207031 48.140625 90.304688 46.84375 90.085938 44.34375 L 90.085938 39.695312 "/>
<path style=" stroke:none;fill-rule:nonzero;fill:rgb(0%,0%,0%);fill-opacity:1;" d="M 100.828125 24.554688 L 100.828125 25.136719 C 100.117188 25.140625 100.050781 25.957031 100.253906 28.074219 C 100.460938 30.195312 100.777344 31.734375 101.082031 33 C 101.464844 29.796875 101.660156 27.589844 101.734375 26.667969 C 101.808594 25.746094 101.660156 25.152344 101.183594 25.136719 L 101.183594 24.554688 L 103.964844 24.554688 L 103.964844 25.1875 C 103.496094 25.21875 103.324219 25.449219 103.257812 25.867188 L 101.226562 38.921875 L 101.226562 46.101562 C 101.199219 46.910156 101.417969 47.347656 101.890625 47.414062 L 101.890625 48.042969 L 98.707031 48.042969 L 98.707031 47.363281 C 99.121094 47.332031 99.535156 46.921875 99.535156 46.113281 L 99.535156 38.910156 L 98.574219 26.59375 C 98.480469 25.429688 98.257812 25.089844 97.605469 25.089844 L 97.558594 24.554688 L 100.828125 24.554688 "/>
<path style=" stroke:none;fill-rule:nonzero;fill:rgb(0%,0%,0%);fill-opacity:1;" d="M 104.632812 45.710938 C 104.472656 45.710938 104.324219 45.738281 104.191406 45.796875 C 104.054688 45.851562 103.929688 45.9375 103.816406 46.050781 C 103.703125 46.167969 103.617188 46.292969 103.558594 46.429688 C 103.503906 46.566406 103.472656 46.710938 103.472656 46.875 C 103.472656 47.03125 103.503906 47.179688 103.558594 47.316406 C 103.617188 47.453125 103.703125 47.578125 103.816406 47.691406 C 103.929688 47.804688 104.050781 47.890625 104.1875 47.945312 C 104.324219 48.003906 104.472656 48.03125 104.632812 48.03125 C 104.792969 48.03125 104.941406 48.003906 105.074219 47.949219 C 105.207031 47.890625 105.332031 47.804688 105.445312 47.691406 C 105.5625 47.578125 105.644531 47.453125 105.703125 47.316406 C 105.757812 47.179688 105.789062 47.03125 105.789062 46.875 C 105.789062 46.710938 105.757812 46.566406 105.703125 46.429688 C 105.644531 46.292969 105.5625 46.167969 105.445312 46.050781 C 105.332031 45.9375 105.207031 45.851562 105.070312 45.792969 C 104.9375 45.738281 104.789062 45.710938 104.632812 45.710938 M 104.519531 46.292969 L 104.449219 46.292969 L 104.449219 46.699219 L 104.519531 46.699219 C 104.621094 46.699219 104.699219 46.683594 104.75 46.648438 C 104.800781 46.613281 104.828125 46.5625 104.828125 46.492188 C 104.828125 46.425781 104.800781 46.375 104.75 46.339844 C 104.699219 46.308594 104.625 46.292969 104.519531 46.292969 M 104.59375 46.019531 C 104.820312 46.019531 104.992188 46.058594 105.109375 46.136719 C 105.222656 46.214844 105.277344 46.332031 105.277344 46.492188 C 105.277344 46.605469 105.242188 46.699219 105.175781 46.773438 C 105.105469 46.847656 105.007812 46.894531 104.882812 46.917969 C 104.9375 46.945312 104.988281 46.988281 105.03125 47.039062 C 105.082031 47.089844 105.121094 47.15625 105.160156 47.230469 L 105.378906 47.667969 L 104.929688 47.667969 L 104.71875 47.25 C 104.667969 47.144531 104.625 47.074219 104.589844 47.03125 C 104.550781 46.988281 104.511719 46.964844 104.472656 46.964844 L 104.449219 46.964844 L 104.449219 47.667969 L 104.035156 47.667969 L 104.035156 46.019531 L 104.59375 46.019531 M 104.632812 45.40625 C 104.828125 45.40625 105.015625 45.441406 105.1875 45.515625 C 105.359375 45.585938 105.515625 45.695312 105.660156 45.835938 C 105.800781 45.980469 105.90625 46.136719 105.976562 46.3125 C 106.046875 46.484375 106.085938 46.671875 106.085938 46.875 C 106.085938 47.074219 106.046875 47.257812 105.976562 47.429688 C 105.90625 47.601562 105.800781 47.761719 105.660156 47.902344 C 105.515625 48.046875 105.359375 48.15625 105.1875 48.226562 C 105.015625 48.300781 104.828125 48.335938 104.632812 48.335938 C 104.433594 48.335938 104.246094 48.300781 104.074219 48.226562 C 103.902344 48.15625 103.746094 48.046875 103.605469 47.902344 C 103.460938 47.761719 103.355469 47.601562 103.285156 47.429688 C 103.214844 47.257812 103.179688 47.074219 103.179688 46.875 C 103.179688 46.671875 103.214844 46.484375 103.285156 46.3125 C 103.355469 46.136719 103.460938 45.980469 103.605469 45.835938 C 103.746094 45.695312 103.902344 45.585938 104.074219 45.515625 C 104.246094 45.441406 104.433594 45.40625 104.632812 45.40625 "/>
<path style=" stroke:none;fill-rule:nonzero;fill:rgb(0%,0%,0%);fill-opacity:1;" d="M 111.40625 25.1875 L 111.539062 24.457031 L 114.40625 24.457031 L 114.40625 25.1875 C 113.777344 25.15625 113.496094 25.527344 113.554688 26.304688 L 112.167969 48.238281 L 110.195312 48.238281 L 108.089844 26.15625 C 108.03125 25.671875 107.6875 25.332031 107.058594 25.136719 L 107.058594 24.457031 L 111 24.457031 L 111 25.1875 C 110.375 25.21875 110.074219 25.574219 110.105469 26.253906 L 111.179688 40.28125 L 112.078125 26.304688 C 112.136719 25.558594 111.914062 25.1875 111.40625 25.1875 "/>
<path style=" stroke:none;fill-rule:nonzero;fill:rgb(0%,0%,0%);fill-opacity:1;" d="M 114.777344 24.457031 L 114.777344 25.132812 C 115.085938 25.195312 115.242188 25.515625 115.242188 26.089844 L 115.242188 46.128906 C 115.242188 47.085938 115.085938 47.53125 114.777344 47.46875 L 114.777344 48.140625 L 119.617188 48.140625 L 119.617188 47.46875 C 119.308594 47.515625 119.152344 47.070312 119.140625 46.128906 L 119.140625 26.089844 C 119.140625 25.515625 119.277344 25.195312 119.554688 25.132812 L 119.585938 24.457031 Z M 117.285156 25.132812 C 117.5625 25.195312 117.707031 25.515625 117.707031 26.089844 L 117.707031 46.128906 C 117.707031 47.011719 117.585938 47.460938 117.351562 47.472656 L 117.285156 47.472656 C 116.988281 47.457031 116.828125 47.003906 116.820312 46.128906 L 116.820312 26.089844 C 116.820312 25.515625 116.976562 25.195312 117.285156 25.132812 Z M 117.285156 25.132812 "/>
<path style=" stroke:none;fill-rule:nonzero;fill:rgb(0%,0%,0%);fill-opacity:1;" d="M 2.507812 50.277344 L 122.105469 50.277344 L 122.105469 51.441406 L 2.507812 51.441406 Z M 2.507812 50.277344 "/>
<path style=" stroke:none;fill-rule:nonzero;fill:url(#linear0);" d="M 109.0625 0.738281 C 108.855469 0.734375 108.921875 0.96875 108.21875 0.96875 C 107.71875 0.96875 107.347656 1.339844 107.070312 1.371094 C 106.609375 1.425781 106.75 1.644531 106.09375 1.46875 C 105.621094 1.339844 105.488281 1.582031 105.324219 1.746094 C 104.9375 2.136719 104.742188 1.941406 104.550781 2.136719 C 104.359375 2.328125 104.378906 2.554688 104.230469 2.71875 C 104.03125 2.929688 103.769531 2.652344 103.589844 3.019531 C 103.394531 3.410156 103.078125 2.808594 102.816406 3.105469 C 102.644531 3.304688 102.484375 3.714844 102.238281 3.882812 C 101.992188 4.046875 101.585938 4.097656 101.273438 4.269531 C 100.550781 4.664062 100.332031 5.121094 99.257812 5.253906 C 98.378906 5.253906 97.679688 6.082031 97.222656 5.824219 C 96.957031 5.554688 97.898438 4.707031 98.765625 4.550781 C 99.585938 4.402344 100.234375 4.078125 100.128906 3.894531 C 100.046875 3.75 99.453125 3.816406 99.152344 4.078125 C 98.824219 4.355469 98.160156 4.332031 98.023438 4.195312 C 97.742188 3.917969 100.761719 2.671875 100.519531 2.339844 C 100.445312 2.238281 99.648438 2.582031 99.535156 2.71875 C 99.277344 3.035156 98.765625 2.8125 98.574219 3.105469 C 98.4375 3.3125 98.128906 3.203125 97.992188 3.300781 C 97.609375 3.582031 97.414062 3.105469 97.222656 3.492188 C 97.089844 3.761719 96.839844 3.511719 96.644531 4.078125 C 96.542969 4.375 96.085938 4.21875 95.679688 4.464844 C 95.5 4.574219 95.292969 4.269531 95.101562 4.269531 C 94.714844 4.269531 94.90625 4.660156 94.523438 4.660156 C 94.089844 4.660156 93.871094 5.210938 93.75 5.160156 C 93.375 5.007812 94.304688 4.292969 94.136719 4.078125 C 94.054688 3.972656 93.324219 4.371094 92.863281 4.660156 C 92.707031 4.757812 92.015625 4.851562 92.015625 5.242188 C 92.015625 5.566406 91.628906 5.242188 91.316406 5.628906 C 91.066406 5.941406 90.664062 5.628906 90.382812 6.019531 C 90.082031 6.433594 89.445312 6.117188 88.734375 6.523438 C 88.214844 6.820312 87.769531 7.183594 87.710938 7.445312 C 87.644531 7.734375 87 7.570312 86.613281 7.765625 C 86.414062 7.863281 86.316406 7.851562 86.226562 8.152344 C 86.066406 8.6875 85.375 8.5 85.070312 8.632812 C 83.910156 9.140625 84.492188 9.707031 83.527344 9.707031 C 83.140625 9.707031 83.527344 10.09375 82.878906 10.09375 C 82.300781 10.09375 82.789062 10.5625 82.5625 10.675781 C 82.367188 10.773438 82.207031 10.351562 82.039062 10.441406 C 81.871094 10.535156 81.984375 10.785156 81.789062 10.871094 C 81.589844 10.960938 81.210938 10.753906 81.019531 10.871094 C 80.28125 11.324219 79.582031 11.949219 78.703125 12.421875 C 77.265625 13.199219 75.457031 13.90625 75.039062 14.363281 C 74.878906 14.539062 74.507812 14.4375 74.265625 14.558594 C 73.496094 14.945312 72.699219 16.164062 72.144531 15.722656 C 71.65625 15.335938 73.300781 14.945312 73.882812 14.363281 C 74.730469 13.507812 75.816406 12.964844 76.773438 12.230469 C 77.359375 11.777344 77.667969 11.039062 77.945312 10.785156 C 78.703125 10.09375 79.382812 10.160156 80.054688 9.707031 C 80.839844 9.171875 81.316406 8.453125 81.210938 8.347656 C 81.019531 8.152344 80.246094 9.511719 79.859375 9.316406 C 79.742188 9.257812 80.246094 8.929688 80.054688 8.734375 C 79.949219 8.628906 79.128906 9.296875 78.125 9.898438 C 77.285156 10.402344 76.300781 10.796875 75.617188 11.257812 C 74.652344 12.035156 73.71875 12.015625 72.722656 12.617188 C 70.707031 13.835938 69.058594 14.945312 68.867188 14.558594 C 68.644531 14.113281 70.214844 13.199219 71.757812 12.230469 C 73.023438 11.433594 74.460938 11.066406 74.265625 10.675781 C 74.144531 10.429688 73.074219 10.902344 72.207031 11.535156 C 71.140625 12.308594 71.226562 11.710938 70.214844 12.421875 C 68.285156 13.78125 66.058594 14.917969 65.972656 14.753906 C 65.769531 14.371094 67.277344 14.027344 67.128906 13.492188 C 67.023438 13.105469 67.902344 12.421875 68.09375 12.617188 C 68.292969 12.816406 67.503906 13.210938 67.707031 13.40625 C 67.902344 13.589844 68.390625 12.8125 68.671875 12.8125 C 68.867188 12.8125 68.867188 12.570312 68.867188 12.421875 C 68.867188 12.035156 69.394531 12.128906 69.832031 11.839844 C 70.574219 11.351562 71.300781 10.632812 71.179688 10.480469 C 71.0625 10.335938 67.902344 12.421875 67.324219 12.421875 C 66.351562 12.421875 62.792969 15.4375 62.5 15.140625 C 62.023438 14.660156 63.65625 13.976562 64.816406 13.199219 C 66.074219 12.355469 67.542969 11.675781 67.429688 11.476562 C 67.367188 11.363281 64.65625 12.792969 61.921875 14.171875 C 59.605469 15.335938 57.484375 17.082031 57.292969 16.886719 C 57.097656 16.695312 58.824219 15.609375 58.640625 15.425781 C 58.515625 15.300781 56.582031 16.726562 54.589844 17.859375 C 53.214844 18.640625 51.753906 19.140625 51.117188 19.328125 C 50.851562 19.40625 50.558594 19.40625 46.960938 19.410156 C 41.667969 19.417969 36.074219 19.992188 32.214844 23.875 L 32.792969 23.875 C 36.265625 20.769531 40.871094 20.1875 43.980469 20.1875 C 45.695312 20.1875 47.03125 20.355469 48.609375 20.867188 C 50.414062 21.449219 51.21875 21.933594 51.117188 22.128906 C 50.925781 22.519531 50.621094 21.964844 50.347656 22.246094 C 50.058594 22.539062 49.570312 21.933594 49.203125 21.929688 C 48.609375 21.925781 48.226562 21.855469 48.226562 22.019531 C 48.226562 22.191406 48.996094 22.402344 47.839844 22.402344 C 46.886719 22.402344 45.332031 22.128906 45.332031 21.933594 C 45.332031 21.351562 48.417969 21.855469 48.417969 21.351562 C 48.417969 21.160156 45.625 21.441406 45.238281 21.246094 C 44.570312 20.910156 42.417969 21 41.769531 21.242188 C 41.472656 21.351562 40.125 21.148438 40.125 21.546875 C 40.125 21.730469 40.5 21.636719 41.023438 21.742188 C 41.394531 21.816406 41.882812 22.101562 42.171875 22.128906 C 42.960938 22.203125 43.648438 21.820312 44.175781 22.324219 C 44.855469 22.980469 42.824219 22.710938 40.894531 22.710938 C 40.445312 22.710938 40.738281 23.101562 41.089844 23.101562 C 41.277344 23.101562 42.632812 22.957031 43.015625 23.488281 C 43.523438 24.191406 44.367188 23.945312 44.367188 24.265625 C 44.367188 24.457031 43.265625 24.601562 43.886719 24.882812 C 44.558594 25.191406 44.65625 25.402344 43.980469 25.523438 C 42.421875 25.800781 40.894531 27.757812 39.929688 28.148438 L 39.929688 31.132812 C 40.0625 31.132812 40.230469 31.1875 40.230469 31.3125 C 40.230469 31.519531 39.929688 31.652344 39.929688 31.835938 C 39.929688 32.417969 40.796875 31.433594 40.796875 32.222656 C 40.796875 32.824219 39.929688 32.371094 39.929688 32.816406 C 39.929688 33 40.125 33.027344 40.125 33.207031 C 40.125 33.386719 40.011719 33.386719 39.917969 33.382812 L 39.929688 34.164062 C 40.316406 33.777344 40.703125 33 40.894531 33.195312 C 41.105469 33.40625 40.347656 34.378906 39.929688 34.746094 L 39.929688 35.328125 C 41.28125 35.328125 44.003906 31.722656 46.296875 32.613281 C 47.066406 32.910156 45.71875 33.195312 45.332031 33.386719 C 44.34375 33.882812 43.136719 34.992188 42.246094 35.808594 C 41.480469 36.507812 41.089844 37.660156 39.929688 38.242188 L 39.929688 38.824219 C 40.011719 39.019531 40.316406 38.628906 40.316406 39.019531 C 40.316406 39.210938 39.929688 39.601562 40.316406 39.601562 C 40.894531 39.601562 40.703125 39.308594 41.417969 39.210938 L 41.546875 38.046875 L 42.824219 38.046875 L 42.824219 38.824219 C 42.949219 38.839844 43.117188 38.839844 43.210938 38.824219 C 43.300781 38.976562 42.90625 39.277344 42.824219 39.601562 C 43.210938 39.40625 43.660156 38.824219 44.367188 38.824219 C 45.140625 38.824219 47.597656 36.847656 48.417969 36.6875 L 48.417969 25.816406 C 48.417969 25.339844 47.894531 25.234375 47.648438 25.234375 L 47.648438 23.875 L 48.71875 23.875 C 48.804688 23.683594 47.261719 22.996094 48.804688 23.238281 C 49.375 23.332031 50.019531 23.582031 50.347656 23.875 L 54.785156 23.875 L 54.785156 32.613281 L 53.433594 32.613281 L 53.191406 30.671875 L 53.179688 40.570312 L 51.8125 40.570312 C 51.8125 40.570312 51.792969 39.792969 51.792969 39.332031 C 51.792969 39.253906 51.816406 39.019531 51.683594 39.207031 C 51.457031 39.53125 51.539062 39.855469 51.460938 40.183594 L 51.4375 46.78125 C 51.4375 47.023438 51.695312 46.976562 51.992188 47.050781 L 52.035156 48.480469 L 47.839844 48.460938 L 47.816406 48.335938 C 47.332031 48.335938 47.261719 48.664062 46.875 48.964844 C 46.503906 49.253906 45.980469 49.304688 45.910156 49.925781 L 59.605469 49.886719 C 59.605469 49.453125 60.183594 49.382812 60.378906 48.53125 L 55.167969 48.515625 L 55.167969 47.363281 C 55.957031 47.253906 55.902344 46.496094 55.941406 45.75 L 57.140625 23.875 L 60.066406 23.875 L 61.597656 45.8125 C 61.816406 46.113281 62.308594 45.230469 62.308594 45.8125 C 62.308594 46.199219 61.535156 46.394531 61.535156 46.769531 C 61.535156 47.195312 61.882812 47.292969 62.113281 47.363281 L 62.113281 48.515625 L 60.570312 48.53125 C 60.765625 49.21875 60.128906 49.445312 59.992188 49.886719 L 60.765625 49.886719 C 61.34375 49.378906 61.710938 48.425781 61.921875 48.722656 C 62.113281 48.996094 61.726562 49.773438 61.34375 49.886719 L 64.816406 49.886719 C 65.199219 49.609375 65.394531 48.832031 65.78125 48.53125 L 65.007812 48.53125 C 64.636719 48.707031 64.429688 49.5 64.042969 49.5 C 63.539062 49.5 64.351562 48.960938 64.429688 48.515625 L 63.417969 48.53125 L 63.519531 47.171875 C 63.871094 47.183594 64.121094 46.976562 64.234375 46.671875 C 64.234375 46.59375 64.203125 46.589844 64.042969 46.589844 C 63.570312 46.589844 62.753906 48.285156 62.5 48.140625 C 62.207031 47.972656 63.53125 46.535156 64.140625 45.800781 L 64.140625 25.816406 C 64.140625 25.539062 63.925781 25.257812 63.464844 25.234375 L 63.464844 23.875 L 67.128906 23.875 L 68.09375 31.058594 L 68.09375 25.816406 C 68.09375 25.398438 67.902344 25.234375 67.617188 25.234375 L 67.613281 23.875 L 71 23.886719 L 70.988281 25.234375 C 70.46875 25.578125 70.410156 25.816406 70.410156 26.398438 L 70.410156 29.699219 C 70.851562 29.613281 72.402344 28.339844 73.109375 27.566406 L 73.109375 26.789062 C 72.722656 26.789062 72.144531 27.757812 72.144531 27.078125 C 72.144531 26.679688 72.917969 26.789062 73.109375 26.207031 L 73.109375 23.875 L 76.582031 23.875 C 78.125 22.519531 81.449219 20.445312 84.875 17.859375 C 85.648438 17.277344 85.261719 17.179688 86.035156 16.695312 C 86.707031 16.269531 87.191406 15.917969 87 15.722656 C 86.550781 15.273438 83.5 18.199219 83.332031 17.859375 C 82.949219 17.082031 85.648438 16.199219 87.578125 14.644531 C 88.234375 14.113281 89.1875 13.988281 89.699219 13.394531 C 89.980469 13.066406 90.101562 12.769531 90.390625 12.8125 C 90.714844 12.859375 91.019531 12.722656 91.242188 12.421875 C 91.617188 11.875 92.070312 11.824219 92.59375 11.648438 C 93.171875 11.453125 92.785156 11.851562 93.28125 11.851562 C 93.53125 11.851562 93.941406 11.714844 93.941406 11.566406 C 93.941406 11.367188 93.558594 11.453125 93.558594 11.257812 C 93.554688 10.890625 94.191406 10.992188 94.714844 10.675781 C 95.097656 10.445312 95.320312 10.035156 95.558594 9.898438 C 95.941406 9.683594 96.710938 9.402344 96.449219 9.125 C 96.191406 8.84375 95.402344 9.707031 95.101562 9.898438 C 94.433594 10.332031 94.222656 9.910156 93.363281 10.675781 C 93.054688 10.953125 92.59375 10.675781 92.292969 11.066406 C 91.972656 11.472656 91.546875 11.597656 91.433594 11.335938 C 91.207031 10.8125 92.59375 10.558594 93.171875 10.289062 C 94 9.898438 94.804688 9.453125 94.714844 9.316406 C 94.523438 9.035156 93.867188 9.714844 93.75 9.511719 C 93.628906 9.304688 94.398438 8.550781 94.917969 8.554688 C 95.390625 8.554688 95.679688 7.957031 95.871094 8.152344 C 96.03125 8.3125 95.285156 8.8125 95.484375 8.929688 C 95.636719 9.015625 95.964844 8.648438 96.257812 8.347656 C 96.421875 8.179688 96.644531 8.203125 96.65625 7.972656 C 96.664062 7.828125 96.460938 7.785156 96.460938 7.679688 C 96.460938 7.414062 97.0625 7.257812 97.800781 6.988281 C 98.777344 6.632812 98.652344 6.210938 99.535156 6.210938 C 99.863281 6.210938 99.804688 5.710938 100.117188 5.628906 C 100.507812 5.523438 101.148438 5.382812 101.464844 5.167969 C 101.964844 4.824219 102.238281 4.207031 103.007812 3.96875 C 103.210938 3.90625 103.117188 4.078125 103.394531 4.078125 C 103.742188 4.078125 103.75 3.601562 103.972656 3.492188 C 104.167969 3.402344 104.1875 3.496094 104.359375 3.492188 C 104.621094 3.492188 104.480469 3.3125 104.746094 3.046875 C 105.019531 2.765625 105.351562 2.484375 105.722656 2.339844 C 105.898438 2.273438 106.046875 2.132812 106.289062 2.21875 C 106.5625 2.316406 107.042969 2.046875 107.253906 1.941406 C 107.640625 1.746094 107.832031 1.382812 108.035156 1.371094 C 108.21875 1.359375 108.101562 1.554688 108.320312 1.554688 C 108.519531 1.554688 108.476562 1.375 108.710938 1.371094 C 109.03125 1.363281 109.277344 1.066406 109.183594 0.777344 C 109.175781 0.753906 109.128906 0.742188 109.0625 0.738281 Z M 73.882812 5.046875 C 72.953125 5.046875 72.53125 5.628906 72.53125 6.601562 C 72.53125 7.582031 73.109375 8.152344 73.882812 8.152344 C 74.671875 8.152344 75.230469 7.570312 75.230469 6.601562 C 75.230469 5.628906 74.84375 5.046875 73.882812 5.046875 Z M 73.882812 5.242188 C 74.265625 5.242188 74.070312 5.675781 73.882812 5.71875 C 73.582031 5.792969 73.101562 6.1875 72.996094 6.601562 C 72.945312 6.789062 72.722656 7.183594 72.722656 6.601562 C 72.722656 5.824219 73.109375 5.242188 73.882812 5.242188 Z M 83.449219 19.96875 C 82.84375 20.003906 79.15625 22.425781 77.351562 23.875 L 78.335938 23.871094 C 80.070312 22.585938 83.730469 20.351562 83.527344 19.992188 C 83.515625 19.972656 83.488281 19.96875 83.449219 19.96875 Z M 79.667969 23.488281 C 79.527344 23.488281 79.480469 23.542969 79.292969 23.871094 L 79.667969 23.875 C 79.753906 23.679688 79.859375 23.488281 79.667969 23.488281 Z M 29.863281 25.625 C 28.164062 27.371094 26.542969 30.476562 26.234375 31.445312 L 26.234375 31.945312 C 26.933594 31.253906 27.519531 29.507812 29.777344 26.398438 Z M 51.394531 26.011719 L 51.378906 33.195312 C 51.699219 32.417969 51.890625 30.960938 51.890625 29.777344 L 53.101562 29.816406 C 52.914062 28.292969 52.472656 26.453125 51.394531 26.011719 Z M 73.109375 28.339844 C 72.066406 28.742188 71.3125 29.824219 70.410156 30.476562 L 70.410156 31.253906 L 73.121094 28.921875 Z M 75.039062 28.921875 L 74.851562 29.125 L 74.765625 29.699219 L 75.039062 29.699219 Z M 29.710938 28.929688 C 28.589844 28.929688 27.777344 30.695312 27.777344 31.640625 C 27.777344 32.222656 26.726562 32.148438 26.621094 33.117188 C 26.597656 33.3125 26.621094 33.777344 26.234375 33.976562 L 26.234375 39.222656 C 26.347656 39.433594 26.464844 39.777344 26.625 39.507812 C 27.03125 38.839844 27.230469 39.613281 27.390625 39.210938 C 27.777344 38.242188 28.628906 38.261719 28.753906 37.664062 C 29.0625 36.207031 29 35.105469 29.460938 33.195312 Z M 37.097656 29.507812 C 36.769531 29.507812 36.621094 29.847656 36.367188 30.144531 C 36.160156 30.386719 35.878906 30.417969 35.878906 30.671875 C 35.878906 30.984375 35.441406 31.160156 35.441406 31.445312 C 35.441406 31.539062 35.878906 31.125 36.074219 30.929688 C 36.460938 30.542969 36.746094 30.0625 37.097656 29.90625 Z M 73.109375 30.28125 C 72.007812 30.863281 71.3125 31.773438 70.410156 32.417969 L 70.410156 33.386719 C 71.367188 32.824219 72.082031 31.894531 73.121094 31.257812 Z M 36.921875 30.617188 C 36.496094 30.597656 35.957031 31.269531 35.597656 31.582031 C 35.214844 31.910156 35.34375 32.417969 35.492188 32.417969 C 35.6875 32.417969 35.769531 31.914062 36.164062 31.914062 C 36.742188 31.914062 35.910156 32.765625 35.414062 33.523438 C 34.980469 34.191406 34.570312 34.851562 34.722656 34.941406 C 34.84375 35.011719 35.308594 34.242188 35.878906 33.460938 C 36.265625 32.929688 36.699219 32.222656 37.097656 32.042969 C 37.035156 31.640625 36.78125 31.882812 36.714844 31.746094 C 36.628906 31.566406 36.988281 31.375 37.097656 31.253906 L 37.097656 30.671875 C 37.042969 30.636719 36.984375 30.617188 36.921875 30.617188 Z M 73.109375 31.640625 C 72.15625 32.246094 71.386719 33.199219 70.410156 33.777344 L 70.410156 34.359375 L 73.109375 31.933594 Z M 37.097656 32.613281 C 36.503906 32.921875 36.417969 33.496094 36.074219 34.039062 C 35.816406 34.445312 35.519531 34.355469 35.609375 35.015625 C 35.6875 35.597656 36.371094 33.96875 37.097656 34.175781 Z M 37.097656 35.71875 C 36.269531 36.390625 36.515625 36.578125 36.265625 37.136719 C 36.058594 37.601562 35.695312 37.976562 35.691406 38.242188 C 35.6875 38.824219 36.691406 37.746094 37.097656 37.464844 Z M 66.441406 38.628906 L 66.425781 42.125 C 66.652344 42.164062 66.789062 42.054688 66.914062 41.929688 Z M 46.101562 38.824219 C 45.523438 38.824219 43.980469 40.375 42.824219 40.957031 C 42.832031 43.214844 42.839844 45.5 42.824219 47.753906 C 43.789062 47.171875 45.007812 46.6875 46.101562 45.8125 C 46.910156 45.167969 47.507812 44.417969 48.417969 43.675781 L 48.417969 43.289062 C 48.046875 43.179688 48.203125 42.898438 47.839844 42.898438 C 47.648438 42.898438 47.261719 43.277344 47.261719 42.898438 C 47.261719 42.765625 47.457031 42.628906 47.648438 42.414062 C 47.882812 42.144531 48.136719 41.800781 48.417969 41.734375 L 48.417969 40.765625 C 48.078125 40.765625 47.378906 42.4375 47.1875 42.292969 C 47.046875 42.1875 47.582031 41.542969 47.464844 41.414062 C 47.179688 41.097656 45.140625 44.257812 44.753906 44.066406 C 44.132812 43.75 47.457031 41.347656 47.453125 40.375 C 47.453125 40.007812 47.648438 40.042969 47.648438 39.695312 C 47.648438 39.574219 47.652344 39.40625 47.453125 39.40625 C 47.261719 39.40625 47.066406 38.824219 46.875 39.121094 C 46.621094 39.511719 46.488281 38.824219 46.101562 38.824219 Z M 48.417969 39.019531 C 48.207031 39.394531 47.839844 39.960938 47.839844 40.375 C 47.839844 40.714844 48.230469 40.121094 48.425781 39.988281 Z M 41.167969 41.152344 C 40.703125 41.152344 40.25 41.929688 39.929688 41.929688 L 39.929688 45.8125 C 40.507812 45.421875 41.011719 42.042969 41.167969 41.152344 Z M 66.90625 42.316406 C 66.742188 42.316406 66.578125 42.742188 66.417969 42.898438 L 66.425781 44.066406 C 66.875 44.066406 66.777344 43.480469 67.09375 43.480469 Z M 67.128906 43.871094 C 66.820312 44.128906 66.664062 44.453125 66.417969 44.648438 L 66.425781 46.007812 C 66.933594 46.007812 66.9375 45.15625 67.324219 45.035156 Z M 58.316406 44.066406 C 58.265625 45.035156 58.28125 45.976562 58.339844 46.976562 L 58.574219 46.976562 C 58.769531 46.042969 58.703125 45.035156 58.671875 44.066406 Z M 48.417969 44.453125 C 45.433594 46.851562 43.957031 47.808594 40.703125 49.886719 L 42.4375 49.886719 C 42.632812 49.113281 43.789062 49.113281 44.367188 48.722656 C 45 48.300781 44.945312 48.917969 44.367188 49.113281 C 43.921875 49.261719 43.699219 49.6875 43.609375 49.875 C 44.179688 49.914062 44.917969 49.914062 45.523438 49.886719 C 45.390625 49.304688 45.796875 49.179688 45.988281 48.984375 C 46.5 48.46875 46.789062 47.945312 47.761719 47.753906 L 47.730469 47.050781 C 48.160156 46.886719 48.417969 47.082031 48.417969 46.78125 C 48.414062 46.046875 48.417969 44.453125 48.417969 44.453125 Z M 66.996094 46.019531 C 66.828125 46.054688 66.539062 46.371094 66.417969 46.394531 L 66.417969 46.78125 C 66.742188 46.78125 67.128906 46.542969 67.128906 46.199219 C 67.128906 46.046875 67.074219 46 66.996094 46.019531 Z M 24.3125 48.53125 C 24.3125 49.011719 24.40625 49.5 24.691406 49.886719 L 24.882812 49.886719 C 24.882812 49.5 24.757812 48.964844 24.691406 48.53125 Z M 25.464844 51.828125 C 25.554688 52.605469 26.101562 53.605469 26.621094 54.152344 C 26.464844 53.351562 25.9375 52.640625 25.847656 51.828125 C 25.847656 51.828125 25.464844 51.828125 25.464844 51.828125 Z M 30.675781 51.828125 L 30.675781 52.023438 C 30.675781 52.203125 30.863281 52.175781 30.863281 52.300781 C 30.863281 52.421875 30.734375 52.414062 30.671875 52.410156 C 30.203125 52.40625 30.027344 52.03125 29.519531 52.03125 C 29.253906 52.03125 28.929688 52.027344 28.933594 52.21875 C 28.9375 52.347656 29.320312 52.292969 29.320312 52.507812 C 29.320312 52.722656 28.363281 52.605469 28.363281 52.902344 C 28.363281 53.1875 29.128906 53.195312 29.128906 53.382812 C 29.128906 53.769531 28.550781 53.742188 28.550781 54.160156 C 28.550781 54.378906 28.984375 54.539062 29.023438 54.742188 C 29.125 55.234375 29.898438 55.238281 29.898438 55.710938 C 29.898438 56.292969 30.285156 56.203125 30.285156 56.398438 C 30.285156 56.59375 30.09375 56.488281 30.09375 56.683594 C 30.09375 56.875 30.425781 56.875 30.714844 56.875 C 31.523438 56.875 31.25 57.265625 31.828125 57.265625 C 32.601562 57.265625 32.40625 57.457031 32.515625 57.457031 C 32.597656 57.457031 32.601562 57.441406 32.601562 57.265625 C 32.601562 56.8125 32.023438 57.03125 32.023438 56.722656 C 32.023438 56.605469 32.023438 56.335938 32.40625 56.539062 C 32.671875 56.679688 33.046875 57.070312 34.144531 57.070312 C 34.398438 57.070312 34.335938 56.875 34.722656 56.875 C 35.109375 56.875 35.109375 57.070312 35.167969 57.324219 C 35.226562 57.566406 36.074219 57.527344 36.074219 57.75 C 36.074219 57.941406 35.5 57.835938 35.5 58.054688 C 35.5 58.234375 36.851562 58.328125 36.851562 58.507812 C 36.851562 58.625 36.074219 58.707031 36.078125 58.921875 C 36.085938 59.207031 37.808594 58.910156 37.808594 59.304688 C 37.808594 59.546875 36.925781 59.730469 36.84375 59.59375 C 36.738281 59.417969 35.878906 59.722656 35.878906 59.980469 C 35.878906 60.566406 37.4375 60.097656 37.429688 60.613281 C 37.421875 60.953125 36.464844 61.011719 36.464844 61.25 C 36.460938 61.730469 43.308594 61.558594 43.199219 61.929688 C 42.992188 62.617188 41.667969 62.519531 40.75 62.519531 C 40.023438 62.519531 38.597656 62.117188 38.597656 62.511719 C 38.597656 62.894531 40.335938 63.050781 41.757812 63.875 C 42.660156 64.402344 43.695312 64.640625 44.753906 64.640625 C 46.101562 64.640625 47.128906 64.238281 48.050781 63.890625 C 49.183594 63.457031 50.347656 63.089844 50.347656 62.507812 C 50.347656 62.3125 50.734375 61.921875 51.191406 61.9375 C 51.699219 61.949219 51.699219 62.3125 52.082031 62.3125 C 52.230469 62.3125 52.132812 62.117188 52.660156 62.117188 C 53.046875 62.117188 54.773438 60.527344 55.554688 60.371094 C 55.988281 60.285156 57.484375 58.296875 57.871094 58.296875 C 58.449219 58.296875 59.09375 57.148438 60.183594 55.90625 C 61.558594 54.34375 62.886719 52.605469 63.265625 51.839844 C 63.265625 51.839844 59.414062 51.828125 59.414062 51.828125 C 59.332031 51.886719 59.316406 52 59.316406 52.113281 C 59.316406 52.390625 59.800781 51.945312 59.800781 52.332031 C 59.800781 52.527344 58.835938 52.992188 58.835938 53.578125 C 58.835938 53.964844 59.367188 53.203125 59.535156 53.253906 C 59.9375 53.382812 58.855469 54.214844 58.835938 54.546875 C 58.816406 54.84375 59.035156 54.671875 59.035156 54.988281 C 59.03125 55.324219 57.484375 56.101562 57.484375 56.683594 C 57.484375 57.265625 58.105469 56.402344 58.257812 56.488281 C 58.734375 56.765625 57.101562 58.238281 56.90625 58.042969 C 56.714844 57.847656 57.21875 57.515625 57.117188 57.34375 C 57.042969 57.214844 56.605469 57.578125 56.519531 57.457031 C 56.414062 57.308594 56.90625 56.683594 56.53125 56.6875 C 56.214844 56.6875 55.75 58.042969 55.167969 57.652344 C 54.664062 57.3125 53.675781 58.921875 53.433594 58.429688 C 53.242188 58.042969 54.207031 57.652344 54.207031 57.265625 C 54.207031 56.859375 58.105469 53.621094 58.679688 51.835938 L 41.859375 51.828125 C 41.503906 52.023438 40.699219 52.3125 40.214844 52.410156 C 39.226562 52.609375 40.066406 51.953125 40.316406 51.828125 C 40.316406 51.828125 30.675781 51.828125 30.675781 51.828125 Z M 38.792969 53.632812 C 38.917969 53.621094 38.964844 53.6875 38.964844 53.964844 C 38.964844 54.3125 38.390625 54.75 37.917969 54.746094 C 37.628906 54.746094 37.230469 54.742188 37.230469 54.351562 C 37.230469 53.957031 37.601562 53.570312 38 53.769531 C 38.289062 53.914062 38.664062 53.640625 38.792969 53.632812 Z M 51.992188 62.894531 C 51.816406 62.929688 51.570312 63.28125 51.890625 63.28125 C 52.769531 63.28125 55.363281 61.148438 55.253906 60.953125 C 55.082031 60.652344 52.394531 62.816406 51.992188 62.894531 Z M 51.992188 62.894531 "/>
</g>
</svg>
